# xmcd
# 
# Track frame offsets:
#   150
#   15026
#   28954
#   39546
#   52177
#   64311
#   82029
#   95558
#   105407
#   116060
#   129327
#   139140
#   152873
#   164071
#   174260
#   187655
#   200283
# 
# Disc length: 2865 seconds
# 
# Revision: 1
# Processed by: cddbd v1.5.2PL0 Copyright (c) Steve Scherf et al.
# Submitted via: Synapstar 1.0 
# 
DISCID=e30b2f11
DTITLE=Various Artist - CBEP451-04
DYEAR=1900
DGENRE=Country
TTITLE0=Claude King - Wolverton Mountain
TTITLE1=Patsy Cline - She's Got You
TTITLE2=Flatt and Scruggs - Salty Dog
TTITLE3=George Jones - She Thinks I Still Care
TTITLE4=Johnny Cash - Ring Of Fire
TTITLE5=Patsy Cline - Faded Love
TTITLE6=Ernie Ashworth - Talk Back Trembling Lips
TTITLE7=Buck Owens - Love's Gonna Live Here
TTITLE8=Dale and Grace - I'm Leaving It All Up To You
TTITLE9=Hawkshaw Hawkins - Lonesome 7-7203
TTITLE10=Patsy Cline - Anytime
TTITLE11=Bill Anderson - Still
TTITLE12=George Hamilton IV - Abilene
TTITLE13=Patsy Cline - Back In My Baby's Arms
TTITLE14=Bobby Bare - Detroit City
TTITLE15=Porter Wagoner - Misery Loves Company
TTITLE16=Carl Butler and Pearl - Don't Let Me Cross Over
EXTD=Chartbusters MediaType: Karaoke CD+G Producer: Chartbuster
EXTT0=
EXTT1=
EXTT2=
EXTT3=
EXTT4=
EXTT5=
EXTT6=
EXTT7=
EXTT8=
EXTT9=
EXTT10=
EXTT11=
EXTT12=
EXTT13=
EXTT14=
EXTT15=
EXTT16=
PLAYORDER=
